{"title":"The Fifth Commandment 2008 DVD9rip English Klam","uid":6126542,"size":1681712142,"categoryP":"video","categoryS":"movies","magnet":"?xt=urn:btih:c1a830f57650d790a724c62d05393729e71bd9d2&amp;dn=The+Fifth+Commandment+2008+DVD9rip+English+Klam&amp;tr=udp%3A%2F%2Ftracker.openbittorrent.com%3A80&amp;tr=udp%3A%2F%2Fopen.demonii.com%3A1337&amp;tr=udp%3A%2F%2Ftracker.coppersurfer.tk%3A6969&amp;tr=udp%3A%2F%2Fexodus.desync.com%3A6969","seeders":2,"leechers":0,"uploader":"Klambake","files":-1,"time":1295961749,"description":"With: Rick Yune, Keith David and Bokeem Woodbine\n\nIn Bangkok, an assassin who turns down a job that hits too close to home finds himself targeted by the elite members of his profession.\n\nGeneral:\n\nComplete name                    : The Fifth Commandment\\The Fifth Commandment.avi\nFormat                           : AVI\nFormat/Info                      : Audio Video Interleave\nFile size                        : 1.56 GiB\nDuration                         : 1h 26mn\nOverall bit rate                 : 2 577 Kbps\n\nVideo:\n\nFormat                           : MPEG-4 Visual\nFormat profile                   : Simple@L3\nFormat settings, BVOP            : No\nFormat settings, QPel            : No\nFormat settings, GMC             : No warppoints\nFormat settings, Matrix          : Default (H.263)\nCodec ID                         : XVID\nCodec ID/Hint                    : XviD\nDuration                         : 1h 26mn\nBit rate                         : 2 183 Kbps\nWidth                            : 624 pixels\nHeight                           : 336 pixels\nDisplay aspect ratio             : 1.857\nFrame rate                       : 25.000 fps\nColor space                      : YUV\nChroma subsampling               : 4:2:0\nBit depth                        : 8 bits\nScan type                        : Progressive\nBits/(Pixel*Frame)               : 0.416\nStream size                      : 1.32 GiB (85%)\nWriting library                  : XviD 1.1.2 (UTC 2006-11-01)\n\nAudio:\n\nFormat                           : AC-3\nFormat/Info                      : Audio Coding 3\nMode extension                   : CM (complete main)\nCodec ID                         : 2000\nDuration                         : 1h 26mn\nBit rate mode                    : Constant\nBit rate                         : 384 Kbps\nChannel(s)                       : 6 channels\nChannel positions                : Front: L C R, Side: L R, LFE\nSampling rate                    : 48.0 KHz\nBit depth                        : 16 bits\nStream size                      : 239 MiB (15%)\nAlignment                        : Aligned on interleaves\nInterleave, duration             : 32 ms (0.80 video frame)\nInterleave, preload duration     : 768 ms\n\n","torrent":{"xt":"urn:btih:c1a830f57650d790a724c62d05393729e71bd9d2","amp;dn":"The+Fifth+Commandment+2008+DVD9rip+English+Klam","amp;tr":["udp%3A%2F%2Ftracker.openbittorrent.com%3A80","udp%3A%2F%2Fopen.demonii.com%3A1337","udp%3A%2F%2Ftracker.coppersurfer.tk%3A6969","udp%3A%2F%2Fexodus.desync.com%3A6969"],"infoHash":"c1a830f57650d790a724c62d05393729e71bd9d2","infoHashBuffer":{"type":"Buffer","data":[193,168,48,245,118,80,215,144,167,36,198,45,5,57,55,41,231,27,217,210]},"announce":[],"urlList":[]}}